<?xml version="1.0" encoding="utf-8"?>
<?xml-stylesheet type="text/xsl" href="rss1.xsl"?>
<rss version="2.0" xmlns:atom="http://www.w3.org/2005/Atom" xmlns:content="http://purl.org/rss/1.0/modules/content/" xmlns:dc="http://purl.org/dc/elements/1.1/" xmlns:media="http://search.yahoo.com/mrss/">
<channel>
 <title>Getty</title>
 <link>http://www.gettyimg.com/</link>
 <atom:link href="http://www.gettyimg.com/" rel="self" type="application/rss+xml" />

 
                <item>
                <title><![CDATA[【Cinema Center】SERIES - Aruna's Magic - Season 1 - 1080p Disney+ WEB-DL DDP5.1 H.264-LAZY]]></title>
                <link><![CDATA[https://sharemania.us/threads/arunas-magic-season-1-1080p-disney-web-dl-ddp5-1-h-264-lazy.238699/]]></link>
                <description><![CDATA[<article>
<blockquote class="messageText SelectQuoteContainer ugc baseHtml">
Aruna's Magic:<img src="https://cdn2.broadcasthe.net/tvdb/banners/v4/series/418380/banners/656870c4df2ea.jpg" class="bbCodeImage LbImage" alt="[​IMG]" data-url="https://cdn2.broadcasthe.net/tvdb/banners/v4/series/418380/banners/656870c4df2ea.jpg" style=""> <br>
<br>
<div class="bbCodeBlock bbCodeQuote">
<aside>
<blockquote class="quoteContainer"><div class="quote"><i><b>Synopsis:</b></i><br>
A teenager who lives in Rio de Janeiro and tries to hide her power. However, an important competition will make her lose control of this mysterious gift. From there, a spell made 300 years ago will eventually be revealed, which will wake up the three Witches.</div><div class="quoteExpand">Click to expand...</div></blockquote>
</aside>
</div>
<div class="ToggleTriggerAnchor bbCodeSpoilerContainer">
<button type="button" class="button bbCodeSpoilerButton ToggleTrigger Tooltip JsOnly" data-target="> .SpoilerTarget"><span>Spoiler: <span class="SpoilerTitle">MediaInfo</span></span></button>
<div class="SpoilerTarget bbCodeSpoilerText">General<br>
Unique ID : 228648595767290570031458762140731506715 (0xAC041E23C081064AE42252BDB20F001B)<br>
Complete name : Arunas.Magic.S01E01.Odd.Girl.1080p.DSNP.WEB-DL.DDP5.1.H.264-LAZY.mkv<br>
Format : Matroska<br>
Format version : Version 4<br>
File size : 1.59 GiB<br>
Duration : 32 min 34 s<br>
Overall bit rate mode : Variable<br>
Overall bit rate : 6 987 kb/s<br>
Encoded date : UTC 2024-02-27 00:23:42<br>
Writing application : mkvmerge v82.0 ('I'm The President') 64-bit<br>
Writing library : libebml v1.4.5 + libmatroska v1.7.1<br>
<br>
Video<br>
ID : 1<br>
Format : AVC<br>
Format/Info : Advanced Video Codec<br>
Format profile : High@L4<br>
Format settings : CABAC / 4 Ref Frames<br>
Format settings, CABAC : Yes<br>
Format settings, Reference frames : 4 frames<br>
Codec ID : V_MPEG4/ISO/AVC<br>
Duration : 32 min 34 s<br>
Bit rate mode : Variable<br>
Bit rate : 6 729 kb/s<br>
Maximum bit rate : 12.7 Mb/s<br>
Width : 1 920 pixels<br>
Height : 1 080 pixels<br>
Display aspect ratio : 16:9<br>
Frame rate mode : Constant<br>
Frame rate : 23.976 (24000/1001) FPS<br>
Color space : YUV<br>
Chroma subsampling : 4:2:0<br>
Bit depth : 8 bits<br>
Scan type : Progressive<br>
Bits/(Pixel*Frame) : 0.135<br>
Stream size : 1.53 GiB (96%)<br>
Default : Yes<br>
Forced : No<br>
Color range : Limited<br>
Color primaries : BT.709<br>
Transfer characteristics : BT.709<br>
Matrix coefficients : BT.709<br>
<br>
Audio<br>
ID : 2<br>
Format : E-AC-3<br>
Format/Info : Enhanced AC-3<br>
Commercial name : Dolby Digital Plus<br>
Codec ID : A_EAC3<br>
Duration : 32 min 34 s<br>
Bit rate mode : Constant<br>
Bit rate : 256 kb/s<br>
Channel(s) : 6 channels<br>
Channel layout : L R C LFE Ls Rs<br>
Sampling rate : 48.0 kHz<br>
Frame rate : 31.250 FPS (1536 SPF)<br>
Compression mode : Lossy<br>
Stream size : 59.6 MiB (4%)<br>
Title : Brazilian<br>
Language : Portuguese<br>
Service kind : Complete Main<br>
Default : Yes<br>
Forced : No<br>
<br>
Text #1<br>
ID : 3<br>
Format : UTF-8<br>
Codec ID : S_TEXT/UTF8<br>
Codec ID/Info : UTF-8 Plain Text<br>
Duration : 30 min 37 s<br>
Bit rate : 77 b/s<br>
Count of elements : 544<br>
Stream size : 17.3 KiB (0%)<br>
Title : SDH<br>
Language : English<br>
Default : No<br>
Forced : No<br>
<br>
Text #2<br>
ID : 4<br>
Format : UTF-8<br>
Codec ID : S_TEXT/UTF8<br>
Codec ID/Info : UTF-8 Plain Text<br>
Duration : 30 min 37 s<br>
Bit rate : 71 b/s<br>
Count of elements : 553<br>
Stream size : 16.0 KiB (0%)<br>
Title : Brazilian (SDH)<br>
Language : Portuguese<br>
Default : No<br>
Forced : No<br>
<br>
Menu<br>
00:11:09.127 : en:Scene 1<br>
00:25:56.431 : en:Scene 2<br>
00:30:39.131 : en:Credits</div>
</div><br>
Screenshots:<br>
<img src="https://ptpimg.me/cc93b1.jpg" class="bbCodeImage LbImage" alt="[​IMG]" data-url="https://ptpimg.me/cc93b1.jpg" style=""> <br>
<div class="bbCodeBlock bbCodeVfcHH HiddenContent">
<div class="attribution type">Hidden Content:</div>
<blockquote>You must either reply or click 'Like' to see the hidden information contained here.</blockquote>
</div>
<div class="messageTextEndMarker">&nbsp;</div>
</blockquote>
</article>]]></description>
                <author><![CDATA[LazyRips]]></author>
                </item>

                
                <item>
                <title><![CDATA[【Requests】[REQ AUD] - Prince - Partyman (Video Mix) (3" CD Lossless Rip)]]></title>
                <link><![CDATA[https://sharemania.us/threads/prince-partyman-video-mix-3-cd-lossless-rip.238698/]]></link>
                <description><![CDATA[<article>
<blockquote class="messageText SelectQuoteContainer ugc baseHtml">
<img src="https://i.discogs.com/VX0C1ixPlsP0oeekRJ0viqEg7snOjPZCM6XWjrPbly8/rs:fit/g:sm/q:90/h:600/w:600/czM6Ly9kaXNjb2dz/LWRhdGFiYXNlLWlt/YWdlcy9SLTgxNjEz/OC0xNTU5ODE4ODQ4/LTU4NzMuanBlZw.jpeg" class="bbCodeImage LbImage" alt="[​IMG]" data-url="https://i.discogs.com/VX0C1ixPlsP0oeekRJ0viqEg7snOjPZCM6XWjrPbly8/rs:fit/g:sm/q:90/h:600/w:600/czM6Ly9kaXNjb2dz/LWRhdGFiYXNlLWlt/YWdlcy9SLTgxNjEz/OC0xNTU5ODE4ODQ4/LTU4NzMuanBlZw.jpeg" style=""> <br>
<br>
Hello Collectors!<br>
<br>
I am looking for a lossless rip of this 3" CD release of Partyman (Video Mix) by Prince.<br>
<br>
Thank you in advance!
<div class="messageTextEndMarker">&nbsp;</div>
</blockquote>
</article>]]></description>
                <author><![CDATA[nukleopatra]]></author>
                </item>

                </channel></rss>